<svg width="24" height="24" viewBox="0 0 24 24" fill="none" xmlns="http://www.w3.org/2000/svg">
<path d="M7 19.376L10.1729 19.334V21.5L7 21.543C6.10625 21.543 5.375 20.5676 5.375 19.376V17.251H7V19.376ZM18.375 2.04297C18.9926 2.04297 19.5319 2.50858 19.8066 3.18945C19.9293 3.44857 20 3.73726 20 4.04297V19.543C20 19.8483 19.929 20.1366 19.8066 20.3955C19.532 21.0767 18.9928 21.543 18.375 21.543H12.6875V2.04297H18.375ZM10.1729 4.16699L7 4.20898V6.33496H5.375V4.20898C5.3752 3.01753 6.10637 2.04297 7 2.04297L10.1729 2V4.16699Z" fill="white"/>
<path d="M6.6399 14.6372L6.39774 15.1939C6.35989 15.2846 6.29605 15.362 6.21425 15.4165C6.13244 15.4709 6.03634 15.5 5.93803 15.5C5.83973 15.5 5.74362 15.4709 5.66182 15.4165C5.58002 15.362 5.51617 15.2846 5.47833 15.1939L5.23617 14.6372C4.8104 13.6523 4.03068 12.8627 3.05084 12.4241L2.30369 12.0906C2.21305 12.049 2.13626 11.9822 2.08244 11.8983C2.02861 11.8143 2 11.7167 2 11.617C2 11.5173 2.02861 11.4197 2.08244 11.3358C2.13626 11.2518 2.21305 11.1851 2.30369 11.1434L3.00949 10.8297C4.01396 10.3786 4.80703 9.55971 5.22534 8.5418L5.47439 7.94082C5.51097 7.84772 5.57477 7.7678 5.65747 7.71146C5.74017 7.65513 5.83794 7.625 5.93803 7.625C6.03813 7.625 6.13589 7.65513 6.2186 7.71146C6.3013 7.7678 6.3651 7.84772 6.40168 7.94082L6.65073 8.54081C7.06859 9.55892 7.86131 10.3781 8.86559 10.8297L9.57237 11.1444C9.66274 11.1862 9.73926 11.2529 9.79288 11.3368C9.84651 11.4206 9.875 11.518 9.875 11.6175C9.875 11.717 9.84651 11.8144 9.79288 11.8983C9.73926 11.9821 9.66274 12.0489 9.57237 12.0906L8.82424 12.4231C7.8446 12.8621 7.06522 13.6521 6.6399 14.6372Z" fill="white"/>
</svg>
