<svg width="57" height="53" viewBox="0 0 57 53" fill="none" xmlns="http://www.w3.org/2000/svg">
<path d="M50.4144 12.4458C45.4513 9.36191 40.5874 9.46134 35.6243 12.1473C34.3339 12.8436 32.845 13.1421 31.5546 14.0374C28.2789 16.226 28.1796 16.3254 25.9958 20.0062C27.2862 20.9015 28.6759 21.1999 30.1649 21.5978C34.5324 22.7916 37.9073 26.6713 38.2051 31.0484C38.3044 32.839 38.3044 34.7291 37.9073 36.5197C37.1132 40.0015 35.6243 41.2947 32.1501 41.6927C29.9663 41.9911 27.584 42.3891 25.7973 40.7974C23.6135 39.0068 22.1246 36.7187 21.2312 34.0327C20.3379 31.2473 19.8416 28.3625 19.9408 25.3781C19.9408 24.3833 19.7423 23.8859 18.5511 24.1843C15.474 24.8807 12.8932 26.2734 10.8087 28.7603C10.6101 28.9593 10.4116 29.2578 10.1138 29.4567C6.44108 32.2421 5.34923 36.1218 4.75366 40.3994C4.15808 44.4781 4.35658 48.4573 5.84552 52.337C3.06617 52.9338 3.06614 52.9338 1.97426 50.5463C-1.20215 44.0801 -0.308784 37.9125 2.96688 31.7447C4.85287 28.1635 7.63226 25.4775 11.0072 23.5874C13.588 22.1947 16.4666 20.802 19.643 20.802C20.5364 20.802 21.1319 20.4041 21.529 19.6082C22.5216 17.3202 23.812 15.3307 25.7973 13.739C29.1722 10.9536 32.8449 8.66553 37.1132 7.57125C40.4882 6.67594 43.8631 6.07905 47.3373 7.37228C48.2306 7.67072 48.6277 7.27283 48.4292 6.27804C48.2307 5.38272 47.7344 4.48739 47.4366 3.59208C47.1388 2.89572 46.841 2.0999 46.9403 1.30407C47.0395 0.508232 47.4365 -0.0886321 48.5284 0.0108473C50.3152 0.110327 51.4071 0.806682 52.2012 2.49783C53.3923 4.98482 54.6827 7.4718 55.8739 9.95878C57.2636 12.8437 56.7673 14.6343 53.8886 15.9275C52.6975 16.5244 51.5063 17.1213 50.5137 18.116C50.2159 18.4145 49.9181 18.6135 49.5211 18.713C48.1314 19.1109 46.0469 18.7129 45.8483 17.8176C45.5505 16.4249 46.6424 15.7286 47.5358 14.9328C48.4292 14.1369 49.5211 13.4406 50.4144 12.4458ZM33.639 33.8338C33.8376 32.839 33.8376 32.1427 33.639 31.4463C33.4405 30.7499 33.242 30.0536 33.0435 29.4567C32.2494 26.7708 28.7752 23.9854 26.0951 23.8859C24.7054 23.8859 24.5069 24.0848 24.3083 25.4775C24.1098 27.3677 24.5069 29.2578 24.904 31.1479C25.4995 33.7343 26.5914 36.2213 28.7752 37.9125C30.6611 39.3052 32.3486 38.8078 33.242 36.7187C33.7383 35.6244 33.7383 34.6297 33.639 33.8338Z" fill="#FE2C55"/>
</svg>
