<svg width="24" height="24" viewBox="0 0 24 24" fill="none" xmlns="http://www.w3.org/2000/svg">
<path d="M11.5176 2C17.3264 2 22.0352 6.03665 22.0352 11.0156C22.0351 12.3484 21.6945 13.6117 21.0889 14.75C21.0826 14.7679 21.0766 14.786 21.0684 14.8037C19.9401 17.2215 18.0621 19.2116 15.7129 20.4766L13.0967 21.8848C12.4257 22.2461 11.6237 21.7092 11.7021 20.9512L11.7979 20.0234C11.7048 20.0255 11.6113 20.0303 11.5176 20.0303C5.70902 20.0302 1.00025 15.9944 1 11.0156C1 6.0367 5.70886 2.00009 11.5176 2ZM6.1084 9.81348C5.27884 9.81366 4.60664 10.4859 4.60645 11.3154C4.60645 12.1451 5.27872 12.8182 6.1084 12.8184C6.93823 12.8184 7.61133 12.1453 7.61133 11.3154C7.61113 10.4858 6.93811 9.81348 6.1084 9.81348ZM11.5176 9.81348C10.6881 9.81372 10.0158 10.4859 10.0156 11.3154C10.0156 12.1451 10.688 12.8181 11.5176 12.8184C12.3474 12.8184 13.0205 12.1453 13.0205 11.3154C13.0203 10.4858 12.3473 9.81348 11.5176 9.81348ZM16.9268 9.81348C16.0971 9.8135 15.424 10.4858 15.4238 11.3154C15.4238 12.1452 16.0969 12.8183 16.9268 12.8184C17.7566 12.8184 18.4297 12.1453 18.4297 11.3154C18.4295 10.4858 17.7565 9.81348 16.9268 9.81348Z" fill="white"/>
</svg>
