<svg width="61" height="61" viewBox="0 0 61 61" fill="none" xmlns="http://www.w3.org/2000/svg">
<path opacity="0.9" d="M51.3024 45.0393C51.4107 44.5893 51.9125 44.1928 51.6829 43.6328C51.7921 43.2952 51.9571 42.901 52.0664 42.5633C52.4559 42.1676 52.7878 41.6037 52.6138 40.9872C53.2269 40.4776 53.2219 39.9161 52.712 39.4143C53.1026 39.1308 53.2675 38.7366 53.1512 38.2882C53.8179 37.4975 54.0345 36.5975 53.5772 35.7022L53.5763 35.5899C54.0194 34.913 54.2936 34.1811 53.6137 33.512C53.4733 30.3683 52.2695 27.625 49.7251 25.6771C46.5585 23.2281 43.061 21.4551 38.923 23.3927C38.0842 23.7915 37.5763 23.5142 37.0078 22.732C35.0755 20.1622 32.2012 19.0026 29.2167 18.0685C28.9354 18.0142 28.5975 17.9042 28.3173 17.9623C26.4122 18.4246 24.8349 17.8739 23.6421 16.3659C23.4722 16.1986 23.2466 16.0879 23.1323 15.864C21.9385 14.2438 20.1953 13.9749 18.3975 13.875C17.7793 13.823 17.1055 13.8277 16.4873 13.7757C12.7794 13.5765 9.42133 14.8349 6.80386 17.2674C4.74287 19.1346 3.07844 21.3922 1.75295 23.872C1.53237 24.3228 1.36846 24.8293 1.54144 25.3335C1.71744 26.1746 2.44993 26.4503 3.06306 25.9407C3.62055 25.4877 4.17802 25.0346 4.5099 24.4708C5.50653 22.8917 7.06974 21.8702 8.4063 20.6257C10.5229 18.702 12.9238 17.1694 16.0126 17.2043C17.7538 17.2486 19.5507 17.2363 21.2422 18.0108C22.5392 18.6196 22.6019 19.3492 21.3726 20.0314C17.5158 22.0232 15.3566 25.4634 13.8176 29.1801C12.2239 33.0656 12.7247 32.5568 15.2175 35.0105C16.8605 36.6277 20.9024 36.4876 22.3432 34.3439C23.1182 33.1032 23.9499 31.9183 24.6127 30.6784C25.8815 28.1428 26.4755 25.4995 26.4504 22.692C26.4454 22.1305 26.667 21.7921 27.2265 21.5636C29.2408 20.7637 30.9344 21.7628 32.5714 22.7062C33.4748 23.2616 34.8831 23.7573 35.0054 24.8795C35.1855 26.1698 33.6739 26.6856 32.8392 27.5336C30.7802 29.6254 29.0602 31.9394 28.3002 34.8646C27.4866 38.071 30.3213 41.0839 33.5194 40.7812C36.2693 40.5939 38.2676 37.9971 38.807 35.5226C39.2927 33.3293 39.3283 31.0268 39.1958 28.7816C39.1271 27.3782 39.1818 27.2094 40.4677 26.5829C41.5857 26.0137 42.7643 25.9494 43.947 26.3344C44.6795 26.6101 45.3563 26.9424 46.0888 27.2182C49.5266 28.5985 51.124 31.3952 50.4824 34.9934C50.3235 36.0614 49.9956 37.0745 50.2303 38.1959C49.5129 39.6047 49.0201 41.0119 48.6406 42.5306C48.1398 43.0394 48.0882 43.5452 48.5981 44.047C49.108 44.5489 49.117 45.5596 50.0164 45.6658C50.5213 45.6061 51.1395 45.6581 51.3024 45.0393ZM20.9523 29.5243C20.4555 30.4823 19.9587 31.4403 19.0663 32.1203C18.6201 32.4603 18.2285 32.6314 17.667 32.6352C16.5996 32.5864 16.2021 32.0837 16.6422 31.07C17.5772 28.8736 18.6244 26.6764 20.4628 25.0354C20.7967 24.6962 21.1863 24.3004 21.5202 23.9612C21.7428 23.7351 21.9633 23.2843 22.4145 23.5058C22.8091 23.6716 22.8131 24.1208 22.7039 24.4585C22.384 26.3699 21.781 28.0024 20.9523 29.5243ZM35.3196 34.8727C34.8228 35.8307 34.4393 36.9003 33.2626 37.1891C32.6465 37.3618 32.1416 37.4214 31.6884 36.9753C31.2918 36.5849 31.6247 36.1334 31.6773 35.74C32.0578 34.3335 32.7762 33.0371 33.6645 31.9079C34.4426 31.0041 35.2207 30.1003 35.9431 29.2531C36.0564 29.3646 36.1687 29.3639 36.282 29.4754C35.7922 31.2195 36.2029 33.1821 35.3196 34.8727Z" fill="#FE2C55"/>
</svg>
