<svg width="36" height="44" viewBox="0 0 36 44" fill="none" xmlns="http://www.w3.org/2000/svg">
<path d="M18.348 43.3654C18.348 43.3654 17.9795 43.2767 17.6111 43.2767C16.5057 43.454 16.1373 42.8333 15.861 41.858C15.1241 39.1979 14.2951 36.6265 13.0976 34.0551C11.9922 31.661 10.3341 29.6216 8.21554 27.9369C7.01807 26.9616 5.82064 25.9862 4.62317 24.9221C3.70204 24.1241 2.87301 23.4148 1.67554 23.2375C-0.166726 23.0601 0.570168 21.4641 0.109602 20.5774C-0.350963 19.602 0.754383 19.4247 1.30706 19.1587C1.85974 18.8926 2.41246 18.6267 2.96514 18.6267C5.08374 18.6267 6.92601 17.74 8.49193 16.4099C10.7948 14.3705 12.4528 11.9765 13.6502 9.13905C14.6635 6.65632 15.5846 4.26226 15.7688 1.60218C15.8609 0.804161 16.2294 -0.0825196 17.1505 0.00614953C18.1638 0.0948186 19.4534 0.00617119 20.0061 1.24754C20.3745 2.2229 20.6509 3.2869 20.9272 4.26226C21.8483 7.63168 22.3089 11.0011 23.3221 14.3706C23.6906 15.6119 24.3353 16.7646 24.9801 17.8286C26.2697 20.0453 28.8489 21.1094 31.5202 20.4887C32.6256 20.2227 33.5467 20.5774 34.4678 21.1094C35.8495 21.9961 35.9416 22.7941 34.5599 23.6808C32.7177 24.8335 30.8754 25.8975 28.8489 26.8729C23.9669 29.1783 21.0193 32.6364 20.9272 38.0452C20.9272 39.3752 20.5587 40.7053 20.2824 42.0353C20.0982 42.922 19.8218 43.72 18.348 43.3654ZM5.91272 21.5527C10.5184 25.0995 14.5714 28.3803 17.3348 33.1684C19.177 28.4689 22.8616 25.8089 27.6514 23.5035C24.8881 23.1488 23.5063 21.6414 21.9404 20.3114C21.2035 19.6907 20.5587 18.804 20.2824 17.8286C19.6376 15.8779 18.7165 14.0159 18.4401 11.9765C18.348 11.5331 18.4401 11.0011 17.6111 10.7351C16.8742 11.8878 16.1373 13.1292 15.4004 14.3706C13.2818 17.74 10.7947 20.666 5.91272 21.5527Z" fill="#FCCD32"/>
</svg>
