<svg width="33" height="30" viewBox="0 0 33 30" fill="none" xmlns="http://www.w3.org/2000/svg">
<path d="M11.5114 0.21283C12.3239 0.21283 12.8655 0.0773987 13.4071 0.21283C15.1674 0.483693 15.7091 1.97345 14.4904 3.19234C11.1051 6.98441 8.53236 11.3182 5.95957 15.652C4.8763 17.5481 3.116 17.8189 1.08485 16.4646C-0.133836 15.7874 -0.404639 13.8914 0.67864 12.4016C2.03274 10.5056 2.84518 8.33873 4.4701 6.71356C6.09502 4.95295 6.63667 2.51517 8.80323 1.02543C9.48028 0.483701 10.2927 -0.328895 11.5114 0.21283Z" fill="#FAA57B"/>
<path d="M19.2294 14.2983C18.2816 14.2983 17.0629 14.4337 16.5212 13.3503C15.9796 12.1314 16.5213 11.1834 17.3337 10.2354C20.0419 7.12048 22.8856 3.87009 25.7292 0.890604C27.3541 -0.870003 29.3852 0.619774 31.1456 0.0780491C31.8226 -0.192813 32.0934 2.65122 31.1456 3.73467C30.1977 4.68269 29.5206 6.03703 28.4374 6.84961C26.4062 8.47479 25.0521 10.6417 23.2917 12.6731C21.8022 14.1629 21.396 14.2983 19.2294 14.2983Z" fill="#FAA57B"/>
<path d="M22.749 29.0599C21.6657 29.0599 20.5823 29.3307 19.9053 27.9764C19.2282 26.7575 19.6345 25.8095 20.447 24.7261C22.0719 22.83 23.6968 20.934 25.3217 19.1734C26.5404 17.9545 27.6237 16.871 29.6548 17.2773C30.4673 17.4128 31.4152 17.0065 31.8214 17.9545C32.3631 19.0379 32.2276 19.986 31.4151 20.934C30.061 22.4237 28.7069 24.0489 27.3528 25.5387C26.8112 26.0804 26.1342 26.6221 25.8634 27.2992C25.4571 29.0599 24.103 29.1953 22.749 29.0599Z" fill="#FAA57B"/>
</svg>
