<svg width="39" height="39" viewBox="0 0 39 39" fill="none" xmlns="http://www.w3.org/2000/svg">
<path d="M38.1225 18.0863C35.7066 16.2121 33.1977 14.3379 29.9455 14.0568C29.3879 13.9631 28.7376 13.9631 28.18 13.8694C26.1358 13.4945 26.0428 13.4945 26.6003 11.5266C27.3437 8.9965 27.7154 6.46637 27.5295 3.74881C27.3437 1.59351 26.3216 0.468979 24.2773 0.0941438C22.233 -0.280692 20.6534 0.469025 19.5384 2.24949C18.0516 4.68592 16.9366 7.21602 16.1932 9.93357C16.0074 10.5895 16.0074 11.3392 15.1711 11.9015C13.5915 10.0273 11.64 8.71539 9.50285 7.68459C7.55151 6.74751 5.78601 5.81042 3.46298 6.27896C0.582435 6.84122 -0.811334 9.37137 0.489559 12.0889C1.79045 14.6191 3.83469 16.3995 6.15771 17.8051C6.994 18.2737 7.83036 18.7422 8.66665 19.3045C9.13125 19.6793 9.59579 20.1479 8.94534 20.8038C7.92321 21.9283 7.45861 23.3339 6.62232 24.6459C5.13558 26.8012 4.29934 29.3313 3.64889 31.8615C3.37013 32.8923 3.74181 33.8294 4.5781 34.3916C6.3436 35.5161 8.85247 35.235 10.618 33.8293C11.8259 32.8922 13.1268 31.9552 13.6843 30.3621C13.7772 29.9873 14.056 29.7062 14.5206 29.7062C15.171 29.6125 15.1711 30.2684 15.264 30.6433C15.5428 31.4866 15.8215 32.33 16.1932 33.1734C17.0295 35.0476 17.6799 37.0154 19.5384 38.2337C21.6755 39.6393 24.0914 39.077 25.2994 36.828C26.2286 35.235 26.4145 33.4545 26.5074 31.674C26.6003 29.7999 26.5074 27.9257 26.6003 26.0515C26.6932 24.0836 26.8791 23.8025 28.8304 23.8025C31.4322 23.8025 33.9411 23.6151 36.5429 23.2402C37.7509 23.0528 38.4013 22.3969 38.7729 21.3661C39.1446 20.1478 39.1447 18.8359 38.1225 18.0863ZM22.5118 18.9297C22.7905 18.9297 23.1622 18.8359 23.441 18.8359C23.1622 18.8359 22.8835 18.8359 22.5118 18.9297ZM20.0959 22.678C20.0029 23.1466 19.91 23.6151 19.6313 23.8962C19.8171 23.6151 19.91 23.0528 20.0959 22.678C19.3525 22.678 18.5162 22.3968 17.8657 23.0528C16.2861 22.9591 15.357 22.0221 15.1711 20.5227C15.0782 19.4919 15.9145 18.3674 17.0295 17.8988C18.888 17.1492 20.3747 17.6177 21.7685 18.9297C21.3968 20.1479 21.025 21.3661 20.6534 22.5843C20.4675 22.5843 20.2817 22.5843 20.0959 22.678Z" fill="#FACF71"/>
</svg>
