<svg width="38" height="42" viewBox="0 0 38 42" fill="none" xmlns="http://www.w3.org/2000/svg">
<path d="M33.4292 15.214C33.7258 15.0162 34.0224 14.9174 34.319 14.7196C34.9122 14.3241 34.7144 14.1263 34.2201 13.9286C33.6269 13.1375 34.0224 12.1487 33.8247 11.2588C35.1099 11.3577 35.802 12.3465 36.7906 12.8409C37.3838 13.1375 37.3838 13.6319 36.5929 14.423C35.5054 15.4118 34.7144 15.9062 33.4292 15.214ZM35.6042 14.2252L35.5054 14.1263L35.4065 14.2252L35.5054 14.3241L35.6042 14.2252Z" fill="#FAA57B"/>
<path d="M33.9229 28.563C34.2194 28.0686 34.6149 27.5743 35.1092 27.2776C35.7024 26.981 35.8013 26.4866 35.7024 25.9922C35.999 26.0911 36.2956 26.1899 36.5922 26.2888C37.0865 26.4866 37.8775 26.5855 37.7786 27.1788C37.7786 27.9698 37.1854 28.7608 36.4934 28.8597C35.7024 29.1563 34.6149 29.453 33.9229 28.563Z" fill="#FAA57B"/>
<path d="M33.9233 28.5629C32.3414 28.9585 30.7596 28.6618 29.3755 27.8708C28.288 27.2775 27.2005 27.1787 25.9153 26.6843C26.0141 28.0686 26.3107 29.1562 27.0028 30.0461C27.9914 31.2327 28.1892 32.8148 28.8812 34.1003C29.2767 34.8913 29.1778 35.7812 28.5846 36.5723C27.3983 38.1543 26.0141 37.8577 25.3221 36.2756C25.0255 35.5834 24.7289 34.9902 24.3334 34.3969C23.0482 32.4193 21.763 30.4417 20.28 28.7607C19.4891 28.8596 19.588 29.354 19.4891 29.8484C18.8959 32.1226 18.0061 34.3969 17.6106 36.6711C17.2152 38.9454 15.4357 39.7364 14.0516 41.0219C13.6561 41.3185 13.2606 41.3185 13.0629 40.9229C12.3709 39.6375 11.2833 38.5499 11.6788 36.8689C12.3708 34.1002 12.964 31.2327 14.447 28.6619C16.1277 27.5742 15.8311 25.6954 16.2266 24.1133C15.3368 23.9156 14.447 23.7179 14.0516 24.2123C12.272 26.1899 9.20716 25.5966 7.52647 27.4753C7.4276 27.5742 7.03219 27.673 6.83446 27.5741C5.25263 26.6842 5.05488 28.0685 4.46169 28.8596C4.75829 29.2551 5.35146 28.9585 5.74692 29.2551C6.04351 29.4529 6.24126 29.6506 6.1424 30.0461C6.04354 30.4417 5.74693 30.4417 5.45034 30.4417C4.06624 30.7383 2.97875 30.0462 1.89124 29.4529C1.69351 28.9585 1.79233 28.4641 2.08892 28.0685C2.9787 26.5853 2.78099 26.2887 0.803698 26.1899C0.704833 26.091 0.704821 25.992 0.605957 25.8932C0.605957 25.4976 0.605993 25.201 0.704858 24.8055C1.19918 24.2122 1.89122 24.2122 2.4844 24.3111C5.94466 25.0033 7.82311 22.4324 10.2947 20.7515C8.31743 19.3671 6.14236 18.7738 4.06621 18.1805C3.67075 18.0817 3.27534 18.0816 2.87989 17.9828C1.19919 17.4884 1.00143 17.1917 1.29802 16.0052C1.59461 14.522 2.58329 13.6321 3.86853 13.9287C5.74695 14.3242 7.5265 14.9175 9.10833 15.9063C10.2947 16.5985 11.4811 17.0929 12.7663 17.3895C13.0629 17.4884 13.4583 17.3895 13.6561 17.1917C13.8538 16.8951 13.8538 16.5985 13.5572 16.3018C11.7777 14.2254 10.8879 11.6545 9.70149 9.28133C9.30604 8.49029 9.20721 7.60037 8.81175 6.80933C8.41629 6.01829 8.81175 5.42504 9.30607 4.93064C10.9868 3.24968 12.0742 3.34854 13.1617 5.5239C14.8424 8.58918 16.4243 11.7533 18.2039 14.9175C19.1925 14.4231 19.2913 13.5332 19.5879 12.7421C20.6754 9.47909 21.8618 6.21608 22.8504 2.95304C23.3448 1.1732 24.63 0.481016 26.2119 0.0854953C27.2005 -0.211145 27.6948 0.283267 27.6948 1.27207C27.6948 2.26087 27.3982 3.15078 27.0028 4.0407C25.8164 6.41382 25.3221 9.08356 24.3334 11.5556C24.0368 11.6544 23.6414 11.8522 23.7403 12.1489C24.0368 12.9399 24.0368 13.8298 24.7289 14.4231C25.2232 14.3242 25.1244 13.4343 25.6187 13.5332C27.0028 13.632 28.0903 12.841 29.1778 12.2477C29.5733 12.05 29.8699 11.7534 30.3642 12.1489C30.7596 12.4455 30.9574 11.8522 31.1551 11.5556C31.946 11.4567 32.7369 11.3578 33.5279 11.2589C33.6267 12.1489 33.2312 13.0388 33.9233 13.9287C33.9233 14.2253 34.0222 14.4231 34.0222 14.7197C33.7256 14.9175 33.429 15.0164 33.1324 15.2141C32.9346 15.313 32.7369 15.313 32.5392 15.4119C32.1437 15.313 31.7483 15.313 31.4517 15.1153C30.9573 14.7198 30.6608 14.3242 30.1664 15.1153C29.8698 15.7086 29.771 16.1041 30.5619 16.4007C31.6494 16.7962 30.6607 17.3895 30.7596 17.9828C30.463 18.1805 30.1664 18.2794 29.8699 18.4772C29.0789 16.7962 27.4971 17.5873 25.9153 16.7962C26.6073 18.1806 26.3107 19.2682 27.0028 20.1581C26.6073 20.1581 26.113 20.2571 25.7175 20.2571C25.0255 20.2571 24.3335 20.1582 23.6414 20.2571C23.246 20.2571 22.9493 20.5536 22.8504 20.9492C22.8504 21.3447 22.8505 21.8391 23.2459 21.938C24.4323 22.1357 25.0255 23.1245 26.0141 23.6189C26.4096 23.8167 26.5084 23.4212 26.5084 23.1245C27.3982 22.8279 28.1892 23.1246 28.8812 23.7179C28.9801 24.2123 29.1778 24.6078 29.771 24.2123C31.946 24.0145 33.6267 25.4977 35.5051 26.0909C35.5051 26.6842 35.4062 27.0797 34.9119 27.3764C34.6153 27.5741 34.121 28.0685 33.9233 28.5629Z" fill="#FA9A6A"/>
<path d="M1.79298 29.5515C2.88048 30.1448 3.96803 30.7381 5.35213 30.5403C5.64872 30.4415 6.04413 30.5404 6.04413 30.1449C6.143 29.7493 5.84644 29.5515 5.64871 29.3538C5.25325 29.0571 4.66008 29.3538 4.36349 28.9583C4.95667 28.1672 5.15437 26.6841 6.7362 27.6729C6.93393 27.7717 7.3294 27.7717 7.42826 27.5739C9.20782 25.5963 12.1737 26.1896 13.9533 24.3109C14.4476 23.8165 15.2385 23.9154 16.1283 24.2121C15.7329 25.893 16.0295 27.6728 14.3488 28.7605C13.7556 28.0684 13.2613 28.2661 12.5692 28.6617C11.3828 29.2549 10.5919 30.837 8.91123 30.2437C8.7135 30.1448 8.21915 30.6392 8.02142 30.9359C7.13164 32.2213 5.94531 32.1224 4.66007 31.8258C4.06688 31.628 3.47371 31.4303 2.88052 31.4303C1.59528 31.3314 1.59525 30.5403 1.79298 29.5515Z" fill="#FAA57B"/>
<path d="M31.4518 11.5558C31.2541 11.9513 31.0564 12.4457 30.6609 12.1491C30.1666 11.7536 29.87 12.0502 29.4745 12.248C28.387 12.8412 27.2995 13.7311 25.9154 13.5334C25.4211 13.4345 25.5199 14.3244 25.0256 14.4233C24.3336 13.83 24.3336 12.9401 24.037 12.1491C23.9381 11.8525 24.3336 11.6547 24.6302 11.5558C24.7291 12.2479 25.0256 12.9402 25.8165 12.3469C27.2995 11.3581 28.9802 11.2592 30.6609 10.9625C31.1552 10.8636 31.3529 11.1603 31.4518 11.5558Z" fill="#FAA57B"/>
<path d="M27.2013 20.0592C26.6081 19.1693 26.8058 18.0816 26.1138 16.6973C27.6956 17.4883 29.3763 16.5984 30.0683 18.3782C29.574 19.7626 28.1899 19.4659 27.2013 20.0592Z" fill="#FAA57B"/>
<path d="M26.7057 23.0257C26.7057 23.3224 26.6069 23.7179 26.2114 23.5201C25.2228 23.0257 24.6296 22.0369 23.4432 21.8392C22.9489 21.7403 22.9489 21.2459 23.0477 20.8504C23.1466 20.356 23.4432 20.1582 23.8387 20.1582C24.5307 20.1582 25.2228 20.1582 25.9148 20.1582C24.4319 21.6414 26.2114 22.1358 26.7057 23.0257Z" fill="#FAA57B"/>
<path d="M30.9585 17.8838C30.9585 17.3894 31.8483 16.6973 30.7608 16.3018C29.9699 16.0051 30.0688 15.6096 30.3654 15.0163C30.7608 14.2252 31.1563 14.6208 31.6506 15.0163C31.9472 15.214 32.3426 15.2141 32.7381 15.313C32.6392 16.2029 32.6393 16.9939 33.0347 17.785C32.3427 18.2794 31.6506 18.2793 30.9585 17.8838Z" fill="#FAA57B"/>
<path d="M0.70459 26.2881C2.68188 26.4858 2.87959 26.6836 1.98982 28.1668C1.49549 27.6724 1.00118 26.9802 0.70459 26.2881Z" fill="#FAA57B"/>
<path d="M29.9698 24.1133C29.3766 24.5089 29.1789 24.1133 29.0801 23.6189C29.5744 23.5201 29.871 23.7178 29.9698 24.1133Z" fill="#FAA57B"/>
<path d="M0.606148 24.9043C0.606148 25.2998 0.606172 25.5965 0.507307 25.992C-0.085879 25.4976 -0.283632 25.2009 0.606148 24.9043Z" fill="#FAA57B"/>
</svg>
