<svg width="24" height="24" viewBox="0 0 24 24" fill="none" xmlns="http://www.w3.org/2000/svg">
<g clip-path="url(#clip0_44_208)">
<path fill-rule="evenodd" clip-rule="evenodd" d="M7.3436 12.8644C7.12359 12.639 7 12.3334 7 12.0148C7 11.6961 7.12359 11.3905 7.3436 11.1651L13.9823 4.36688C14.0906 4.2521 14.2201 4.16055 14.3633 4.09757C14.5064 4.03458 14.6604 4.00143 14.8163 4.00005C14.9721 3.99866 15.1266 4.02907 15.2708 4.08949C15.4151 4.14991 15.5461 4.23915 15.6563 4.35198C15.7665 4.46482 15.8536 4.59899 15.9126 4.74668C15.9716 4.89437 16.0013 5.05262 16 5.21219C15.9986 5.37175 15.9662 5.52944 15.9047 5.67606C15.8432 5.82268 15.7538 5.95529 15.6417 6.06614L9.83269 12.0148L15.6417 17.9634C15.8555 18.19 15.9738 18.4936 15.9711 18.8087C15.9684 19.1238 15.845 19.4252 15.6274 19.648C15.4099 19.8708 15.1155 19.9972 14.8078 20C14.5001 20.0027 14.2037 19.8816 13.9823 19.6627L7.3436 12.8644Z" fill="white"/>
</g>
<defs>
<clipPath id="clip0_44_208">
<rect width="24" height="24" fill="white"/>
</clipPath>
</defs>
</svg>
