<svg width="43" height="40" viewBox="0 0 43 40" fill="none" xmlns="http://www.w3.org/2000/svg">
<path d="M0 9.46834C0.106741 6.99482 0.106793 4.84393 1.38769 3.01568C3.736 -0.425735 8.64606 -0.963444 11.955 1.61762C14.0899 3.23078 16.118 4.84392 17.5056 7.10235C18.3595 8.39288 18.6797 8.39287 19.9606 7.42497C22.3089 5.81181 24.5505 3.76849 27.1123 2.47796C32.1292 0.00444197 36.9325 -0.425749 40.882 4.95146C42.2696 6.88726 42.483 9.36079 41.6291 11.6192C40.6684 14.0927 39.7078 16.3512 37.7864 18.3945C35.1179 21.0831 33.1965 24.5246 30.955 27.6433C29.0336 30.332 27.0055 32.913 25.0842 35.6016C24.1235 36.9997 22.6292 37.7525 21.3483 38.7204C20.8146 39.1506 19.9606 39.3657 19.2134 39.4732C18.2528 39.6883 18.0393 38.6128 17.3989 38.2902C16.7584 37.86 16.1179 37.4298 15.4775 36.9996C11.5281 34.4186 8.5393 31.0847 5.87077 27.2131C3.6292 23.9868 2.45509 20.4378 1.17419 16.7813C0.427004 14.3078 0.106741 11.7268 0 9.46834Z" fill="#FE2C55"/>
</svg>
