<svg width="30" height="30" viewBox="0 0 30 30" fill="none" xmlns="http://www.w3.org/2000/svg">
<g clip-path="url(#clip0_45_317)">
<g filter="url(#filter0_d_45_317)">
<path fill-rule="evenodd" clip-rule="evenodd" d="M11.9692 3.2844C11.59 2.9052 10.9752 2.9052 10.596 3.2844C10.2168 3.66361 10.2168 4.27842 10.596 4.65763L12.8224 6.88406H7.39855C5.52158 6.88406 4 8.40564 4 10.2826C4 10.8189 4.43474 11.2536 4.97101 11.2536C5.50729 11.2536 5.94203 10.8189 5.94203 10.2826C5.94203 9.47819 6.59414 8.82609 7.39855 8.82609H15.1667H22.9348C23.7392 8.82609 24.3913 9.47819 24.3913 10.2826C24.3913 10.8189 24.826 11.2536 25.3623 11.2536C25.8986 11.2536 26.3333 10.8189 26.3333 10.2826C26.3333 8.40564 24.8118 6.88406 22.9348 6.88406H17.5109L19.7373 4.65763C20.1165 4.27842 20.1165 3.66361 19.7373 3.2844C19.3581 2.9052 18.7433 2.9052 18.3641 3.2844L15.1667 6.48185L11.9692 3.2844ZM5.94203 22.4203C5.94203 21.884 5.50729 21.4493 4.97101 21.4493C4.43474 21.4493 4 21.884 4 22.4203C4 24.5654 5.73895 26.3043 7.88406 26.3043H22.4493C24.5944 26.3043 26.3333 24.5654 26.3333 22.4203C26.3333 21.884 25.8986 21.4493 25.3623 21.4493C24.826 21.4493 24.3913 21.884 24.3913 22.4203C24.3913 23.4928 23.5218 24.3623 22.4493 24.3623H7.88406C6.8115 24.3623 5.94203 23.4928 5.94203 22.4203ZM15.092 13.3077C14.8857 12.8127 14.3172 12.5786 13.8222 12.7848C13.3272 12.9911 13.0931 13.5596 13.2993 14.0546L15.7269 19.8807C15.8776 20.2426 16.2312 20.4783 16.6232 20.4783C17.0152 20.4783 17.3687 20.2426 17.5195 19.8807L19.947 14.0546C20.1533 13.5596 19.9192 12.9911 19.4242 12.7848C18.9292 12.5786 18.3607 12.8127 18.1544 13.3077L16.6232 16.9826L15.092 13.3077ZM5.94203 13.6812C5.94203 13.1449 5.50729 12.7101 4.97101 12.7101C4.43474 12.7101 4 13.1449 4 13.6812V19.5072C4 20.0435 4.43474 20.4783 4.97101 20.4783H7.88406C8.42033 20.4783 8.85507 20.0435 8.85507 19.5072C8.85507 18.971 8.42033 18.5362 7.88406 18.5362H5.94203V13.6812ZM11.7681 13.6812C11.7681 13.1449 11.3334 12.7101 10.7971 12.7101C10.2608 12.7101 9.82609 13.1449 9.82609 13.6812V19.5072C9.82609 20.0435 10.2608 20.4783 10.7971 20.4783C11.3334 20.4783 11.7681 20.0435 11.7681 19.5072V13.6812ZM22.4493 12.7101C21.913 12.7101 21.4783 13.1449 21.4783 13.6812V16.5942V19.5072C21.4783 20.0435 21.913 20.4783 22.4493 20.4783H25.3623C25.8986 20.4783 26.3333 20.0435 26.3333 19.5072C26.3333 18.971 25.8986 18.5362 25.3623 18.5362H23.4203V17.5652H25.3623C25.8986 17.5652 26.3333 17.1305 26.3333 16.5942C26.3333 16.0579 25.8986 15.6232 25.3623 15.6232H23.4203V14.6522H25.3623C25.8986 14.6522 26.3333 14.2174 26.3333 13.6812C26.3333 13.1449 25.8986 12.7101 25.3623 12.7101H22.4493Z" fill="white"/>
</g>
</g>
<defs>
<filter id="filter0_d_45_317" x="-0.175363" y="-0.204348" width="30.6842" height="31.6554" filterUnits="userSpaceOnUse" color-interpolation-filters="sRGB">
<feFlood flood-opacity="0" result="BackgroundImageFix"/>
<feColorMatrix in="SourceAlpha" type="matrix" values="0 0 0 0 0 0 0 0 0 0 0 0 0 0 0 0 0 0 127 0" result="hardAlpha"/>
<feOffset dy="0.971014"/>
<feGaussianBlur stdDeviation="2.08768"/>
<feComposite in2="hardAlpha" operator="out"/>
<feColorMatrix type="matrix" values="0 0 0 0 0 0 0 0 0 0 0 0 0 0 0 0 0 0 0.49 0"/>
<feBlend mode="normal" in2="BackgroundImageFix" result="effect1_dropShadow_45_317"/>
<feBlend mode="normal" in="SourceGraphic" in2="effect1_dropShadow_45_317" result="shape"/>
</filter>
<clipPath id="clip0_45_317">
<rect width="30" height="30" fill="white"/>
</clipPath>
</defs>
</svg>
