<svg width="30" height="30" viewBox="0 0 30 30" fill="none" xmlns="http://www.w3.org/2000/svg">
<path d="M2 8.26562C2 7.13431 2.44513 6.04933 3.23747 5.24937C4.02981 4.44941 5.10446 4 6.225 4H23.775C24.3298 4 24.8792 4.11033 25.3918 4.3247C25.9044 4.53907 26.3702 4.85327 26.7625 5.24937C27.1549 5.64547 27.4661 6.11571 27.6784 6.63324C27.8907 7.15077 28 7.70546 28 8.26562V20.7344C28 21.2945 27.8907 21.8492 27.6784 22.3668C27.4661 22.8843 27.1549 23.3545 26.7625 23.7506C26.3702 24.1467 25.9044 24.4609 25.3918 24.6753C24.8792 24.8897 24.3298 25 23.775 25H6.225C5.10446 25 4.02981 24.5506 3.23747 23.7506C2.44513 22.9507 2 21.8657 2 20.7344V8.26562ZM6.225 5.96875C5.62163 5.96875 5.04298 6.21074 4.61633 6.64149C4.18969 7.07224 3.95 7.65646 3.95 8.26562V20.7344C3.95 22.0023 4.9692 23.0312 6.225 23.0312H23.775C24.3784 23.0312 24.957 22.7893 25.3837 22.3585C25.8103 21.9278 26.05 21.3435 26.05 20.7344V8.26562C26.05 7.65646 25.8103 7.07224 25.3837 6.64149C24.957 6.21074 24.3784 5.96875 23.775 5.96875H6.225ZM5.9 16.1406C5.9 15.8796 6.00272 15.6292 6.18557 15.4446C6.36842 15.26 6.61641 15.1562 6.875 15.1562H16.625C16.8836 15.1562 17.1316 15.26 17.3144 15.4446C17.4973 15.6292 17.6 15.8796 17.6 16.1406C17.6 16.4017 17.4973 16.6521 17.3144 16.8367C17.1316 17.0213 16.8836 17.125 16.625 17.125H6.875C6.61641 17.125 6.36842 17.0213 6.18557 16.8367C6.00272 16.6521 5.9 16.4017 5.9 16.1406ZM19.875 15.1562C19.6164 15.1562 19.3684 15.26 19.1856 15.4446C19.0027 15.6292 18.9 15.8796 18.9 16.1406C18.9 16.4017 19.0027 16.6521 19.1856 16.8367C19.3684 17.0213 19.6164 17.125 19.875 17.125H23.125C23.3836 17.125 23.6316 17.0213 23.8144 16.8367C23.9973 16.6521 24.1 16.4017 24.1 16.1406C24.1 15.8796 23.9973 15.6292 23.8144 15.4446C23.6316 15.26 23.3836 15.1562 23.125 15.1562H19.875ZM5.9 20.0781C5.9 19.8171 6.00272 19.5667 6.18557 19.3821C6.36842 19.1975 6.61641 19.0938 6.875 19.0938H11.425C11.6836 19.0938 11.9316 19.1975 12.1144 19.3821C12.2973 19.5667 12.4 19.8171 12.4 20.0781C12.4 20.3392 12.2973 20.5896 12.1144 20.7742C11.9316 20.9588 11.6836 21.0625 11.425 21.0625H6.875C6.61641 21.0625 6.36842 20.9588 6.18557 20.7742C6.00272 20.5896 5.9 20.3392 5.9 20.0781ZM14.675 19.0938C14.4164 19.0938 14.1684 19.1975 13.9856 19.3821C13.8027 19.5667 13.7 19.8171 13.7 20.0781C13.7 20.3392 13.8027 20.5896 13.9856 20.7742C14.1684 20.9588 14.4164 21.0625 14.675 21.0625H23.125C23.3836 21.0625 23.6316 20.9588 23.8144 20.7742C23.9973 20.5896 24.1 20.3392 24.1 20.0781C24.1 19.8171 23.9973 19.5667 23.8144 19.3821C23.6316 19.1975 23.3836 19.0938 23.125 19.0938H14.675Z" fill="white"/>
</svg>
