<svg width="30" height="30" viewBox="0 0 30 30" fill="none" xmlns="http://www.w3.org/2000/svg">
<path d="M24.5611 18.6701C24.3023 18.2466 23.9787 17.975 23.5905 17.8553C22.7852 17.5987 21.8864 17.6161 21.3441 18.2005C20.7379 19.0002 20.7227 20.1985 21.3441 20.8932C22.2919 21.7841 23.9659 21.3438 24.5611 20.4651V18.6701ZM26.6966 11.5174C27.5655 12.3091 28 13.4322 28 14.8866V23.282C27.9859 23.5139 27.7947 23.6932 27.584 23.6962H24.9772C24.7442 23.6822 24.5641 23.4917 24.5612 23.282V23.0334C23.6909 23.691 22.6839 23.994 21.677 24C20.5343 23.9667 19.5409 23.5641 18.765 22.8539C17.8095 21.9018 17.4414 20.7311 17.4338 19.5262C17.4714 18.2078 17.8538 17.0213 18.7789 16.1708C19.6322 15.452 20.6415 15.1142 21.677 15.1076C22.8233 15.1076 23.7847 15.4114 24.5612 16.0189V15.218C24.5612 13.9477 23.8956 13.3125 22.5644 13.3125C21.5291 13.3125 20.5862 13.7452 19.7357 14.6105C19.5099 14.8095 19.1915 14.7314 19.0701 14.5L18.044 12.7326C17.9515 12.5485 17.9792 12.3828 18.1272 12.2355C18.7558 11.6095 19.4861 11.1354 20.318 10.8133C22.3798 10.1009 25.1317 10.1402 26.6966 11.5174ZM9.64082 10.1366L7.81044 16.6541H11.4989L9.64082 10.1366ZM17.2673 22.9782C17.3043 23.0887 17.3228 23.1623 17.3228 23.1991C17.3151 23.4447 17.1258 23.6105 16.9068 23.6133H13.6344C13.431 23.6133 13.3016 23.5121 13.2461 23.3095L12.331 20.1061H6.97846L6.06328 23.3095C6.00782 23.5121 5.86915 23.6133 5.64728 23.6133H2.43026C2.08448 23.5847 1.95373 23.3733 2.01428 23.0887L7.44993 5.30378C7.52389 5.10126 7.66255 5 7.86593 5H11.4435C11.6469 5 11.7855 5.10126 11.8595 5.30378L17.2673 22.9782Z" fill="white"/>
</svg>
