<svg width="30" height="30" viewBox="0 0 30 30" fill="none" xmlns="http://www.w3.org/2000/svg">
<path fill-rule="evenodd" clip-rule="evenodd" d="M15 2C16.273 1.99961 17.5268 2.31074 18.652 2.90623C19.7772 3.50173 20.7395 4.36351 21.4551 5.41639C22.1707 6.46926 22.6178 7.68125 22.7574 8.94661C22.897 10.212 22.7248 11.4923 22.2559 12.6758C23.3908 12.9861 24.4407 13.5491 25.3273 14.3226C26.2138 15.0961 26.9139 16.06 27.3752 17.1424C27.8365 18.2247 28.0471 19.3973 27.9912 20.5725C27.9352 21.7477 27.6143 22.895 27.0522 23.9286C26.4902 24.9622 25.7017 25.8553 24.7457 26.5411C23.7897 27.2269 22.691 27.6876 21.5318 27.8887C20.3726 28.0899 19.183 28.0263 18.0518 27.7026C16.9207 27.379 15.8774 26.8038 15 26.0199C14.1226 26.8038 13.0793 27.379 11.9482 27.7026C10.817 28.0263 9.62736 28.0899 8.46816 27.8887C7.30896 27.6876 6.21026 27.2269 5.25428 26.5411C4.2983 25.8553 3.5098 24.9622 2.94777 23.9286C2.38575 22.895 2.06476 21.7477 2.00882 20.5725C1.95289 19.3973 2.16346 18.2247 2.62478 17.1424C3.08609 16.06 3.78621 15.0961 4.67273 14.3226C5.55926 13.5491 6.60923 12.9861 7.74409 12.6758C7.27519 11.4923 7.10302 10.212 7.2426 8.94661C7.38217 7.68125 7.82927 6.46926 8.54486 5.41639C9.26046 4.36351 10.2228 3.50173 11.348 2.90623C12.4732 2.31074 13.727 1.99961 15 2ZM20.2014 15.0034C18.8707 15.0007 17.59 15.5106 16.6254 16.4273C17.247 17.5456 17.6007 18.8355 17.6007 20.2048C17.601 21.5267 17.2654 22.8269 16.6254 23.9836C17.2424 24.5671 17.9928 24.9907 18.8111 25.2174C19.6295 25.4441 20.4909 25.467 21.3201 25.284C22.1494 25.1011 22.9212 24.7179 23.5683 24.168C24.2153 23.618 24.7178 22.918 25.032 22.1291C25.3461 21.3401 25.4623 20.4863 25.3705 19.6421C25.2786 18.7979 24.9814 17.989 24.5049 17.2861C24.0284 16.5833 23.3871 16.0077 22.6369 15.6098C21.8867 15.2119 21.0505 15.0037 20.2014 15.0034ZM9.21348 15.0359C8.09912 15.1622 7.0554 15.6452 6.23795 16.413C5.4205 17.1808 4.8731 18.1922 4.67736 19.2965C4.48163 20.4007 4.64805 21.5387 5.15181 22.5407C5.65558 23.5426 6.46969 24.355 7.47278 24.8565C8.47586 25.358 9.61419 25.5219 10.718 25.3238C11.8219 25.1256 12.8321 24.576 13.5981 23.7568C14.364 22.9377 14.8447 21.8929 14.9685 20.7782C15.0923 19.6636 14.8524 18.5388 14.2848 17.5716C12.3362 17.3923 10.5261 16.4872 9.21348 15.0359ZM15 4.60068C13.6705 4.59952 12.3909 5.10754 11.4243 6.02038C10.4576 6.93323 9.87724 8.18159 9.80234 9.50902C9.72744 10.8365 10.1637 12.1422 11.0215 13.158C11.8794 14.1738 13.0936 14.8225 14.4148 14.9709C15.7275 13.5196 17.5376 12.6146 19.4862 12.4352C19.95 11.6451 20.1969 10.7464 20.2019 9.83012C20.2068 8.91386 19.9696 8.01256 19.5143 7.21742C19.059 6.42228 18.4018 5.76153 17.609 5.30202C16.8163 4.84252 15.9163 4.60058 15 4.60068Z" fill="white"/>
</svg>
