<svg width="30" height="30" viewBox="0 0 30 30" fill="none" xmlns="http://www.w3.org/2000/svg">
<path d="M14.9996 2C12.6326 2 10.7139 3.91878 10.7139 6.28571V13.4286C10.7139 15.7955 12.6326 17.7143 14.9996 17.7143C17.3665 17.7143 19.2853 15.7955 19.2853 13.4286" stroke="white" stroke-width="2" stroke-linecap="round" stroke-linejoin="round"/>
<path d="M25 13.4287C25 14.7419 24.7413 16.0423 24.2388 17.2555C23.7362 18.4688 22.9997 19.5712 22.0711 20.4998C21.1425 21.4284 20.0401 22.165 18.8268 22.6675C17.6136 23.1701 16.3132 23.4287 15 23.4287M15 23.4287C13.6868 23.4287 12.3864 23.1701 11.1732 22.6675C9.95991 22.165 8.85752 21.4284 7.92893 20.4998C7.00035 19.5712 6.26375 18.4688 5.7612 17.2555C5.25866 16.0423 5 14.7419 5 13.4287M15 23.4287V27.7144" stroke="white" stroke-width="2" stroke-linecap="round" stroke-linejoin="round"/>
<path d="M22.483 4.51389L26 6L22.4841 7.48495L21 11L19.5147 7.48495L16 6L19.5147 4.51505L20.9988 1L22.483 4.51389Z" fill="white"/>
</svg>
