<svg width="30" height="30" viewBox="0 0 30 30" fill="none" xmlns="http://www.w3.org/2000/svg">
<path d="M13.2 11.05C13.2 11.355 13.0788 11.6475 12.8632 11.8632C12.6475 12.0788 12.355 12.2 12.05 12.2C11.745 12.2 11.4525 12.0788 11.2368 11.8632C11.0212 11.6475 10.9 11.355 10.9 11.05C10.9 10.745 11.0212 10.4525 11.2368 10.2368C11.4525 10.0212 11.745 9.9 12.05 9.9C12.355 9.9 12.6475 10.0212 12.8632 10.2368C13.0788 10.4525 13.2 10.745 13.2 11.05ZM18.95 12.2C19.255 12.2 19.5475 12.0788 19.7632 11.8632C19.9788 11.6475 20.1 11.355 20.1 11.05C20.1 10.745 19.9788 10.4525 19.7632 10.2368C19.5475 10.0212 19.255 9.9 18.95 9.9C18.645 9.9 18.3525 10.0212 18.1368 10.2368C17.9212 10.4525 17.8 10.745 17.8 11.05C17.8 11.355 17.9212 11.6475 18.1368 11.8632C18.3525 12.0788 18.645 12.2 18.95 12.2ZM4 7.6C4 6.38 4.48464 5.20998 5.34731 4.34731C6.20998 3.48464 7.38 3 8.6 3H22.4C23.62 3 24.79 3.48464 25.6527 4.34731C26.5154 5.20998 27 6.38 27 7.6V17.95C27.0003 18.1011 26.9708 18.2508 26.9131 18.3905C26.8555 18.5302 26.7709 18.6572 26.6642 18.7642L19.7642 25.6642C19.6572 25.7709 19.5302 25.8555 19.3905 25.9131C19.2508 25.9708 19.1011 26.0003 18.95 26H8.6C7.38 26 6.20998 25.5154 5.34731 24.6527C4.48464 23.79 4 22.62 4 21.4V7.6ZM8.6 5.3C7.99 5.3 7.40499 5.54232 6.97365 5.97365C6.54232 6.40499 6.3 6.99 6.3 7.6V21.4C6.3 22.01 6.54232 22.595 6.97365 23.0263C7.40499 23.4577 7.99 23.7 8.6 23.7H15.5V19.123H15.4908C13.9314 19.123 12.7952 18.3364 12.0983 17.6349C11.6871 17.22 11.3343 16.7511 11.0495 16.2411L11.0311 16.2066L11.0265 16.1951L11.0242 16.1905L11.0219 16.1882C10.8911 15.9122 10.8752 15.5955 10.9779 15.3078C11.0805 15.0201 11.2933 14.7849 11.5693 14.6541C11.8453 14.5233 12.162 14.5074 12.4497 14.6101C12.7374 14.7127 12.9726 14.9255 13.1034 15.2015C13.1264 15.2475 13.1663 15.3119 13.223 15.3947C13.3357 15.5649 13.5036 15.7903 13.7267 16.0111C14.1752 16.4619 14.7594 16.823 15.4908 16.823C15.7208 16.824 15.9493 16.7867 16.167 16.7126C16.972 15.3855 18.4325 14.5 20.1 14.5H24.7V7.6C24.7 6.99 24.4577 6.40499 24.0263 5.97365C23.595 5.54232 23.01 5.3 22.4 5.3H8.6ZM24.7 16.8H20.1C19.49 16.8 18.905 17.0423 18.4737 17.4737C18.0423 17.905 17.8 18.49 17.8 19.1V23.7H18.4739L24.7 17.4739V16.8Z" fill="white"/>
</svg>
