<svg width="30" height="30" viewBox="0 0 30 30" fill="none" xmlns="http://www.w3.org/2000/svg">
<path d="M16.5144 3.18211C16.1196 1.60596 13.8821 1.60596 13.4856 3.18211L13.3702 3.64683C13.3027 3.9169 13.1642 4.16399 12.969 4.36245C12.7738 4.56091 12.529 4.70352 12.2601 4.77548C11.9912 4.84743 11.7079 4.84611 11.4397 4.77165C11.1714 4.6972 10.928 4.55231 10.7346 4.35204L10.4015 4.00919C9.27223 2.84088 7.33373 3.96044 7.78058 5.52197L7.91057 5.98344C7.98695 6.25081 7.99048 6.53374 7.92078 6.80293C7.85108 7.07212 7.7107 7.31778 7.51416 7.51449C7.31762 7.7112 7.07207 7.85179 6.80294 7.92171C6.5338 7.99164 6.25087 7.98835 5.98344 7.91219L5.52197 7.78058C3.96207 7.33373 2.84088 9.27223 4.00919 10.4015L4.35204 10.7346C4.55231 10.928 4.6972 11.1714 4.77165 11.4397C4.84611 11.7079 4.84743 11.9912 4.77548 12.2601C4.70352 12.529 4.56091 12.7738 4.36245 12.969C4.16399 13.1642 3.9169 13.3027 3.64683 13.3702L3.18211 13.4856C1.60596 13.8804 1.60596 16.1179 3.18211 16.5144L3.64683 16.6298C3.9169 16.6973 4.16399 16.8358 4.36245 17.031C4.56091 17.2262 4.70352 17.471 4.77548 17.7399C4.84743 18.0088 4.84611 18.2921 4.77165 18.5603C4.6972 18.8286 4.55231 19.072 4.35204 19.2654L4.00919 19.5985C2.84088 20.7278 3.96044 22.6663 5.52197 22.2194L5.98344 22.0894C6.25098 22.0129 6.53411 22.0093 6.8035 22.0791C7.07288 22.1489 7.3187 22.2894 7.51546 22.4862C7.71223 22.6829 7.85277 22.9287 7.92253 23.1981C7.99229 23.4675 7.98872 23.7507 7.91219 24.0182L7.78058 24.478C7.33373 26.0379 9.27223 27.1591 10.4015 25.9908L10.7346 25.648C10.928 25.4477 11.1714 25.3028 11.4397 25.2283C11.7079 25.1539 11.9912 25.1526 12.2601 25.2245C12.529 25.2965 12.7738 25.4391 12.969 25.6376C13.1642 25.836 13.3027 26.0831 13.3702 26.3532L13.4856 26.8179C13.8804 28.394 16.1179 28.394 16.5144 26.8179L16.6298 26.3532C16.6973 26.0831 16.8358 25.836 17.031 25.6376C17.2262 25.4391 17.471 25.2965 17.7399 25.2245C18.0088 25.1526 18.2921 25.1539 18.5603 25.2283C18.8286 25.3028 19.072 25.4477 19.2654 25.648L19.5985 25.9908C20.7278 27.1591 22.6663 26.0396 22.2194 24.478L22.0894 24.0166C22.0129 23.749 22.0093 23.4659 22.0791 23.1965C22.1489 22.9271 22.2894 22.6813 22.4862 22.4845C22.6829 22.2878 22.9287 22.1472 23.1981 22.0775C23.4675 22.0077 23.7507 22.0113 24.0182 22.0878L24.478 22.2194C26.0379 22.6663 27.1591 20.7278 25.9908 19.5985L25.648 19.2654C25.4477 19.072 25.3028 18.8286 25.2283 18.5603C25.1539 18.2921 25.1526 18.0088 25.2245 17.7399C25.2965 17.471 25.4391 17.2262 25.6376 17.031C25.836 16.8358 26.0831 16.6973 26.3532 16.6298L26.8179 16.5144C28.394 16.1196 28.394 13.8821 26.8179 13.4856L26.3532 13.3702C26.0831 13.3027 25.836 13.1642 25.6376 12.969C25.4391 12.7738 25.2965 12.529 25.2245 12.2601C25.1526 11.9912 25.1539 11.7079 25.2283 11.4397C25.3028 11.1714 25.4477 10.928 25.648 10.7346L25.9908 10.4015C27.1591 9.27223 26.0396 7.33373 24.478 7.78058L24.0166 7.91057C23.7492 7.98695 23.4663 7.99048 23.1971 7.92078C22.9279 7.85108 22.6822 7.7107 22.4855 7.51416C22.2888 7.31762 22.1482 7.07207 22.0783 6.80294C22.0084 6.5338 22.0117 6.25087 22.0878 5.98344L22.2194 5.52197C22.6663 3.96207 20.7278 2.84088 19.5985 4.00919L19.2654 4.35204C19.072 4.55231 18.8286 4.6972 18.5603 4.77165C18.2921 4.84611 18.0088 4.84743 17.7399 4.77548C17.471 4.70352 17.2262 4.56091 17.031 4.36245C16.8358 4.16399 16.6973 3.9169 16.6298 3.64683L16.5144 3.18211ZM15 23.1196C13.9239 23.1348 12.8556 22.936 11.857 22.5348C10.8585 22.1335 9.94963 21.5378 9.1833 20.7822C8.41698 20.0267 7.80846 19.1263 7.39312 18.1336C6.97777 17.1408 6.76389 16.0754 6.76389 14.9992C6.76389 13.923 6.97777 12.8576 7.39312 11.8648C7.80846 10.872 8.41698 9.97169 9.1833 9.21613C9.94963 8.46057 10.8585 7.86485 11.857 7.46359C12.8556 7.06233 13.9239 6.86354 15 6.87876C17.1539 6.87876 19.2196 7.73439 20.7426 9.25742C22.2656 10.7804 23.1212 12.8461 23.1212 15C23.1212 17.1539 22.2656 19.2196 20.7426 20.7426C19.2196 22.2656 17.1539 23.1212 15 23.1212V23.1196Z" fill="white"/>
</svg>
