<svg width="30" height="30" viewBox="0 0 30 30" fill="none" xmlns="http://www.w3.org/2000/svg">
<path d="M3.85552 18.2033C3.29572 17.2707 3 16.2035 3 15.1158C3 14.0281 3.29572 12.9609 3.85552 12.0283C4.02755 11.7412 4.25776 11.4932 4.53134 11.3004C4.80491 11.1075 5.11581 10.974 5.44405 10.9085L8.15241 10.3662C8.31393 10.3342 8.4596 10.2478 8.56514 10.1214L11.8734 6.14929C13.7643 3.87766 14.7113 2.74345 15.5544 3.049C16.3974 3.35455 16.4006 4.83271 16.4006 7.78902V22.4458C16.4006 25.4005 16.4006 26.8771 15.556 27.1842C14.7129 27.4882 13.7659 26.354 11.875 24.0839L8.56194 20.1102C8.45681 19.9841 8.31175 19.8977 8.15081 19.8654L5.44245 19.3231C5.11421 19.2576 4.80331 19.1241 4.52974 18.9312C4.25616 18.7384 4.02755 18.4904 3.85552 18.2033Z" stroke="white" stroke-width="2"/>
<path d="M23.6572 9.45898C25.1498 10.9515 25.9919 12.9736 26 15.0844C26.0081 17.1952 25.1815 19.2236 23.7004 20.7275" stroke="white" stroke-width="2" stroke-linecap="round"/>
</svg>
