<svg width="24" height="24" viewBox="0 0 24 24" fill="none" xmlns="http://www.w3.org/2000/svg">
<path d="M22.6919 12.7069L15.3413 19.7073C15.041 19.9932 14.5901 20.0785 14.1973 19.9238C13.8055 19.7692 13.5496 19.4045 13.5496 19.0004V16.0162C6.55525 16.2431 3.8126 18.6872 3.78513 18.7133H3.78415C3.4524 19.0208 2.94739 19.0846 2.5418 18.8708C2.13621 18.6562 1.92556 18.2146 2.02399 17.7833C2.04565 17.6887 4.25864 8.67261 13.5495 8.03516V4.99961C13.5495 4.59554 13.8055 4.23086 14.1973 4.07615C14.5901 3.92146 15.0409 4.00677 15.3412 4.29271L22.6919 11.2931C22.8887 11.4806 23 11.7347 23 12C23 12.2653 22.8888 12.5194 22.6919 12.7069L22.6919 12.7069Z" fill="white"/>
</svg>
