<svg width="35" height="37" viewBox="0 0 35 37" fill="none" xmlns="http://www.w3.org/2000/svg">
<path d="M23.4988 31.8994C21.5207 32.1658 20.3519 30.9228 19.2729 29.591C19.0032 29.2359 18.9133 28.792 18.6435 28.5257C17.2948 27.0164 16.7554 27.0163 15.6764 28.7032C14.3277 30.834 13.0688 32.876 11.8101 35.0068C10.7311 36.8712 9.20255 37.3151 7.31436 36.4273C6.95471 36.2497 6.59506 35.8946 6.59506 35.4507C6.59506 34.5629 6.41525 33.675 6.7749 32.6984C7.58413 30.2125 8.21354 27.6378 8.93285 25.1519C9.29251 23.9977 9.2026 23.2875 8.03372 22.4884C6.05561 21.0679 4.07747 19.4698 2.3691 17.6942C1.29014 16.6288 -0.238373 15.6522 0.0313683 13.699C0.211196 11.7457 0.750701 11.3018 2.63889 11.657C4.34725 11.9233 5.96568 12.2784 7.67404 12.6336C7.85387 12.6336 8.12362 12.7223 8.30345 12.7223C10.821 12.7223 11.0908 13.6102 11.9899 10.2364C12.889 6.59632 14.7772 3.31135 16.9351 0.292739C17.3847 -0.32874 19.6326 0.115185 19.7225 0.914229C20.1721 3.93284 22.5997 6.1524 22.9594 9.17101C23.0493 10.0588 23.319 10.9467 23.4988 11.8345C23.6787 12.5448 24.1282 12.8111 24.8475 12.8111C26.6458 12.8111 28.3542 12.3672 30.0626 11.5682C31.8609 10.7691 33.2095 11.3018 34.0188 13.0775C34.3784 13.8765 34.2885 14.5868 33.749 15.2083C33.5692 15.3858 33.3894 15.6521 33.1196 15.8297C30.602 17.339 28.534 19.4698 25.9265 21.0679C25.0274 21.6006 24.7577 22.1333 24.9375 23.1099C25.2972 25.0631 25.477 27.0164 25.9265 28.9696C26.5559 30.9228 26.0164 32.1658 23.4988 31.8994Z" fill="#20C9CC"/>
</svg>
